STARTFONT 2.1
FONT -DEC-MiriamFixed-Medium-O-Normal--14-140-75-75-M-90-ISO8859-8
SIZE 14 75 75
FONTBOUNDINGBOX 10 14 0 -3

STARTPROPERTIES 26
FONTNAME_REGISTRY ""
FAMILY_NAME "MiriamFixed"
FOUNDRY "DEC"
WEIGHT_NAME "Medium"
SLANT "O"
SETWIDTH_NAME "Normal"
ADD_STYLE_NAME ""
PIXEL_SIZE 14
RESOLUTION_X 75
RESOLUTION_Y 75
SPACING "M"
AVERAGE_WIDTH 90
CHARSET_REGISTRY "ISO8859"
CHARSET_ENCODING "8"
CHARSET_COLLECTIONS "ASCII ISO8859-8 "
FULL_NAME "MiriamFixed Oblique"
COPYRIGHT "Digital Israel"
CAP_HEIGHT 9
X_HEIGHT 7
_DEC_DEVICE_FONTNAMES "PS=MiriamFixed-Oblique-ISOLatinHebrew"
QUAD_WIDTH 9
POINT_SIZE 140
WEIGHT 10
DEFAULT_CHAR 0
FONT_DESCENT 3
FONT_ASCENT 11
ENDPROPERTIES

CHARS 152

STARTCHAR space
ENCODING 32
SWIDTH 617 0
DWIDTH 9 0
BBX 1 1 0 0
BITMAP
00
ENDCHAR

STARTCHAR exclam
ENCODING 33
SWIDTH 617 0
DWIDTH 9 0
BBX 4 10 2 0
BITMAP
10
30
20
60
40
40
40
00
C0
C0
ENDCHAR

STARTCHAR quotedbl
ENCODING 34
SWIDTH 617 0
DWIDTH 9 0
BBX 5 4 3 5
BITMAP
D8
D8
90
90
ENDCHAR

STARTCHAR numbersign
ENCODING 35
SWIDTH 617 0
DWIDTH 9 0
BBX 7 11 1 -1
BITMAP
14
14
14
7E
28
28
FC
50
50
50
50
ENDCHAR

STARTCHAR dollar
ENCODING 36
SWIDTH 617 0
DWIDTH 9 0
BBX 7 13 1 -2
BITMAP
04
04
1E
22
22
20
18
0C
84
84
78
20
20
ENDCHAR

STARTCHAR percent
ENCODING 37
SWIDTH 617 0
DWIDTH 9 0
BBX 7 10 1 0
BITMAP
60
90
90
66
08
30
CC
12
12
0C
ENDCHAR

STARTCHAR ampersand
ENCODING 38
SWIDTH 617 0
DWIDTH 9 0
BBX 6 8 1 0
BITMAP
1C
20
20
20
54
88
98
64
ENDCHAR

STARTCHAR quoteright
ENCODING 39
SWIDTH 617 0
DWIDTH 9 0
BBX 3 4 3 5
BITMAP
60
60
C0
80
ENDCHAR

STARTCHAR parenleft
ENCODING 40
SWIDTH 617 0
DWIDTH 9 0
BBX 5 13 3 -3
BITMAP
08
10
20
40
40
80
80
80
80
80
40
40
20
ENDCHAR

STARTCHAR parenright
ENCODING 41
SWIDTH 617 0
DWIDTH 9 0
BBX 5 13 1 -3
BITMAP
20
10
10
08
08
08
08
08
10
10
20
40
80
ENDCHAR

STARTCHAR asterisk
ENCODING 42
SWIDTH 617 0
DWIDTH 9 0
BBX 6 6 2 3
BITMAP
10
10
7C
30
50
90
ENDCHAR

STARTCHAR plus
ENCODING 43
SWIDTH 617 0
DWIDTH 9 0
BBX 6 7 2 1
BITMAP
10
10
10
FC
20
20
20
ENDCHAR

STARTCHAR comma
ENCODING 44
SWIDTH 617 0
DWIDTH 9 0
BBX 3 4 2 -2
BITMAP
60
60
C0
80
ENDCHAR

STARTCHAR minus
ENCODING 45
SWIDTH 617 0
DWIDTH 9 0
BBX 6 1 2 4
BITMAP
FC
ENDCHAR

STARTCHAR period
ENCODING 46
SWIDTH 617 0
DWIDTH 9 0
BBX 2 2 3 0
BITMAP
C0
C0
ENDCHAR

STARTCHAR slash
ENCODING 47
SWIDTH 617 0
DWIDTH 9 0
BBX 6 12 1 -2
BITMAP
04
04
08
08
10
10
20
20
40
40
80
80
ENDCHAR

STARTCHAR zero
ENCODING 48
SWIDTH 617 0
DWIDTH 9 0
BBX 7 10 1 0
BITMAP
1C
22
42
42
82
82
84
84
88
70
ENDCHAR

STARTCHAR one
ENCODING 49
SWIDTH 617 0
DWIDTH 9 0
BBX 5 10 1 0
BITMAP
08
78
08
10
10
10
10
20
20
F8
ENDCHAR

STARTCHAR two
ENCODING 50
SWIDTH 617 0
DWIDTH 9 0
BBX 6 10 1 0
BITMAP
38
44
44
04
04
08
10
20
44
FC
ENDCHAR

STARTCHAR three
ENCODING 51
SWIDTH 617 0
DWIDTH 9 0
BBX 6 10 1 0
BITMAP
38
44
04
04
38
04
04
04
88
70
ENDCHAR

STARTCHAR four
ENCODING 52
SWIDTH 617 0
DWIDTH 9 0
BBX 6 10 1 0
BITMAP
0C
14
24
24
48
88
88
FC
10
38
ENDCHAR

STARTCHAR five
ENCODING 53
SWIDTH 617 0
DWIDTH 9 0
BBX 7 10 1 0
BITMAP
3E
20
40
78
04
04
04
04
88
70
ENDCHAR

STARTCHAR six
ENCODING 54
SWIDTH 617 0
DWIDTH 9 0
BBX 6 10 2 0
BITMAP
1C
20
40
40
B8
C4
84
84
88
70
ENDCHAR

STARTCHAR seven
ENCODING 55
SWIDTH 617 0
DWIDTH 9 0
BBX 6 10 2 0
BITMAP
7C
84
08
08
10
10
10
20
20
40
ENDCHAR

STARTCHAR eight
ENCODING 56
SWIDTH 617 0
DWIDTH 9 0
BBX 6 10 1 0
BITMAP
38
44
44
44
78
84
84
84
88
70
ENDCHAR

STARTCHAR nine
ENCODING 57
SWIDTH 617 0
DWIDTH 9 0
BBX 6 10 1 0
BITMAP
38
44
84
84
8C
74
04
08
10
E0
ENDCHAR

STARTCHAR colon
ENCODING 58
SWIDTH 617 0
DWIDTH 9 0
BBX 4 7 2 0
BITMAP
30
30
00
00
00
C0
C0
ENDCHAR

STARTCHAR semicolon
ENCODING 59
SWIDTH 617 0
DWIDTH 9 0
BBX 5 9 1 -2
BITMAP
18
18
00
00
00
60
60
C0
80
ENDCHAR

STARTCHAR less
ENCODING 60
SWIDTH 617 0
DWIDTH 9 0
BBX 7 7 2 1
BITMAP
06
18
60
80
40
20
10
ENDCHAR

STARTCHAR equal
ENCODING 61
SWIDTH 617 0
DWIDTH 9 0
BBX 7 3 1 3
BITMAP
7E
00
FC
ENDCHAR

STARTCHAR greater
ENCODING 62
SWIDTH 617 0
DWIDTH 9 0
BBX 7 7 1 1
BITMAP
10
08
04
02
0C
30
C0
ENDCHAR

STARTCHAR question
ENCODING 63
SWIDTH 617 0
DWIDTH 9 0
BBX 6 9 2 0
BITMAP
78
44
0C
38
60
40
00
C0
C0
ENDCHAR

STARTCHAR at
ENCODING 64
SWIDTH 617 0
DWIDTH 9 0
BBX 7 9 1 0
BITMAP
1E
22
4E
52
A4
A4
9E
80
78
ENDCHAR

STARTCHAR A
ENCODING 65
SWIDTH 617 0
DWIDTH 9 0
BBX 8 9 0 0
BITMAP
1E
06
0A
0A
12
3E
22
42
EF
ENDCHAR

STARTCHAR B
ENCODING 66
SWIDTH 617 0
DWIDTH 9 0
BBX 8 9 0 0
BITMAP
3E
11
11
22
3C
22
42
44
F8
ENDCHAR

STARTCHAR C
ENCODING 67
SWIDTH 617 0
DWIDTH 9 0
BBX 7 9 1 0
BITMAP
1E
66
42
80
80
80
84
CC
70
ENDCHAR

STARTCHAR D
ENCODING 68
SWIDTH 617 0
DWIDTH 9 0
BBX 8 9 0 0
BITMAP
3E
13
11
21
21
21
42
46
F8
ENDCHAR

STARTCHAR E
ENCODING 69
SWIDTH 617 0
DWIDTH 9 0
BBX 9 9 0 0
BITMAP
3F80
1080
1080
2200
3C00
2400
4100
4200
FE00
ENDCHAR

STARTCHAR F
ENCODING 70
SWIDTH 617 0
DWIDTH 9 0
BBX 9 9 0 0
BITMAP
3F80
1080
1080
2200
3C00
2400
4000
4000
F000
ENDCHAR

STARTCHAR G
ENCODING 71
SWIDTH 617 0
DWIDTH 9 0
BBX 7 9 1 0
BITMAP
1C
66
42
80
80
9E
84
CC
70
ENDCHAR

STARTCHAR H
ENCODING 72
SWIDTH 617 0
DWIDTH 9 0
BBX 9 9 0 0
BITMAP
3B80
1100
1100
2200
3E00
2200
4400
4400
EE00
ENDCHAR

STARTCHAR I
ENCODING 73
SWIDTH 617 0
DWIDTH 9 0
BBX 7 9 1 0
BITMAP
3E
08
08
10
10
10
20
20
F8
ENDCHAR

STARTCHAR J
ENCODING 74
SWIDTH 617 0
DWIDTH 9 0
BBX 9 9 0 0
BITMAP
1F80
0200
0200
0400
0400
4400
8800
8800
7000
ENDCHAR

STARTCHAR K
ENCODING 75
SWIDTH 617 0
DWIDTH 9 0
BBX 9 9 0 0
BITMAP
3B80
1100
1200
2400
3800
2400
4400
4400
E600
ENDCHAR

STARTCHAR L
ENCODING 76
SWIDTH 617 0
DWIDTH 9 0
BBX 8 9 0 0
BITMAP
3E
08
08
10
10
11
21
22
FE
ENDCHAR

STARTCHAR M
ENCODING 77
SWIDTH 617 0
DWIDTH 9 0
BBX 10 9 0 0
BITMAP
30C0
1180
1280
2A80
2D00
2900
4200
4200
E700
ENDCHAR

STARTCHAR N
ENCODING 78
SWIDTH 617 0
DWIDTH 9 0
BBX 10 9 0 0
BITMAP
71C0
1080
1080
2900
2900
2500
4500
4200
F200
ENDCHAR

STARTCHAR O
ENCODING 79
SWIDTH 617 0
DWIDTH 9 0
BBX 7 9 1 0
BITMAP
1C
66
42
82
82
82
84
CC
70
ENDCHAR

STARTCHAR P
ENCODING 80
SWIDTH 617 0
DWIDTH 9 0
BBX 8 9 0 0
BITMAP
3E
11
11
21
22
3C
40
40
F8
ENDCHAR

STARTCHAR Q
ENCODING 81
SWIDTH 617 0
DWIDTH 9 0
BBX 7 11 1 -2
BITMAP
1C
66
42
82
82
82
84
CC
70
72
8C
ENDCHAR

STARTCHAR R
ENCODING 82
SWIDTH 617 0
DWIDTH 9 0
BBX 8 9 0 0
BITMAP
3E
11
11
21
22
3C
44
42
F3
ENDCHAR

STARTCHAR S
ENCODING 83
SWIDTH 617 0
DWIDTH 9 0
BBX 8 9 0 0
BITMAP
1D
33
22
20
1C
02
42
C6
BC
ENDCHAR

STARTCHAR T
ENCODING 84
SWIDTH 617 0
DWIDTH 9 0
BBX 9 9 1 0
BITMAP
7F80
4880
8900
9100
1000
1000
2000
2000
F800
ENDCHAR

STARTCHAR U
ENCODING 85
SWIDTH 617 0
DWIDTH 9 0
BBX 8 9 1 0
BITMAP
77
22
22
44
44
44
88
88
70
ENDCHAR

STARTCHAR V
ENCODING 86
SWIDTH 617 0
DWIDTH 9 0
BBX 8 9 1 0
BITMAP
E7
42
42
44
24
28
28
30
30
ENDCHAR

STARTCHAR W
ENCODING 87
SWIDTH 617 0
DWIDTH 9 0
BBX 10 9 0 0
BITMAP
E1C0
4080
4880
4900
5500
5500
6600
6600
4400
ENDCHAR

STARTCHAR X
ENCODING 88
SWIDTH 617 0
DWIDTH 9 0
BBX 9 9 0 0
BITMAP
3B80
1100
1200
0C00
0800
1800
2400
4400
EE00
ENDCHAR

STARTCHAR Y
ENCODING 89
SWIDTH 617 0
DWIDTH 9 0
BBX 8 9 1 0
BITMAP
77
22
24
28
10
10
20
20
F8
ENDCHAR

STARTCHAR Z
ENCODING 90
SWIDTH 617 0
DWIDTH 9 0
BBX 7 9 1 0
BITMAP
3E
42
44
08
10
20
44
84
F8
ENDCHAR

STARTCHAR bracketleft
ENCODING 91
SWIDTH 617 0
DWIDTH 9 0
BBX 5 13 2 -3
BITMAP
38
20
20
20
40
40
40
40
40
80
80
80
E0
ENDCHAR

STARTCHAR backslash
ENCODING 92
SWIDTH 617 0
DWIDTH 9 0
BBX 6 12 1 -2
BITMAP
80
80
40
40
20
20
10
10
08
08
04
04
ENDCHAR

STARTCHAR bracketright
ENCODING 93
SWIDTH 617 0
DWIDTH 9 0
BBX 5 13 2 -3
BITMAP
38
08
08
08
10
10
10
10
10
20
20
20
E0
ENDCHAR

STARTCHAR asciicircum
ENCODING 94
SWIDTH 617 0
DWIDTH 9 0
BBX 6 4 2 5
BITMAP
18
28
44
84
ENDCHAR

STARTCHAR underscore
ENCODING 95
SWIDTH 617 0
DWIDTH 9 0
BBX 9 1 0 -3
BITMAP
FF80
ENDCHAR

STARTCHAR quoteleft
ENCODING 96
SWIDTH 617 0
DWIDTH 9 0
BBX 3 4 4 5
BITMAP
C0
C0
60
20
ENDCHAR

STARTCHAR a
ENCODING 97
SWIDTH 617 0
DWIDTH 9 0
BBX 6 7 1 0
BITMAP
38
44
04
78
88
88
74
ENDCHAR

STARTCHAR b
ENCODING 98
SWIDTH 617 0
DWIDTH 9 0
BBX 8 10 0 0
BITMAP
30
10
10
26
29
31
21
61
62
DC
ENDCHAR

STARTCHAR c
ENCODING 99
SWIDTH 617 0
DWIDTH 9 0
BBX 7 7 1 0
BITMAP
1E
62
42
80
80
8C
70
ENDCHAR

STARTCHAR d
ENCODING 100
SWIDTH 617 0
DWIDTH 9 0
BBX 7 10 1 0
BITMAP
06
02
02
34
4C
84
84
88
98
6C
ENDCHAR

STARTCHAR e
ENCODING 101
SWIDTH 617 0
DWIDTH 9 0
BBX 7 7 1 0
BITMAP
1C
62
42
FE
80
8C
70
ENDCHAR

STARTCHAR f
ENCODING 102
SWIDTH 617 0
DWIDTH 9 0
BBX 8 10 1 0
BITMAP
07
08
08
3E
10
10
10
20
20
F8
ENDCHAR

STARTCHAR g
ENCODING 103
SWIDTH 617 0
DWIDTH 9 0
BBX 8 10 0 -3
BITMAP
19
26
42
42
44
4C
34
04
88
70
ENDCHAR

STARTCHAR h
ENCODING 104
SWIDTH 617 0
DWIDTH 9 0
BBX 7 10 0 0
BITMAP
30
10
10
1C
32
22
22
44
44
EE
ENDCHAR

STARTCHAR i
ENCODING 105
SWIDTH 617 0
DWIDTH 9 0
BBX 5 10 2 0
BITMAP
08
08
00
70
10
10
20
20
20
F8
ENDCHAR

STARTCHAR j
ENCODING 106
SWIDTH 617 0
DWIDTH 9 0
BBX 8 13 0 -3
BITMAP
01
01
00
1E
02
02
02
04
04
04
08
08
F0
ENDCHAR

STARTCHAR k
ENCODING 107
SWIDTH 617 0
DWIDTH 9 0
BBX 8 10 0 0
BITMAP
30
10
10
27
24
28
30
48
44
CE
ENDCHAR

STARTCHAR l
ENCODING 108
SWIDTH 617 0
DWIDTH 9 0
BBX 6 10 1 0
BITMAP
38
08
08
10
10
10
10
20
20
FC
ENDCHAR

STARTCHAR m
ENCODING 109
SWIDTH 617 0
DWIDTH 9 0
BBX 9 7 0 0
BITMAP
6D80
3680
2480
2480
4900
4900
ED80
ENDCHAR

STARTCHAR n
ENCODING 110
SWIDTH 617 0
DWIDTH 9 0
BBX 8 7 0 0
BITMAP
6E
31
21
21
42
42
E7
ENDCHAR

STARTCHAR o
ENCODING 111
SWIDTH 617 0
DWIDTH 9 0
BBX 7 7 1 0
BITMAP
1C
62
42
82
84
8C
70
ENDCHAR

STARTCHAR p
ENCODING 112
SWIDTH 617 0
DWIDTH 9 0
BBX 9 10 0 -3
BITMAP
3700
1880
1080
1080
2100
3300
2C00
4000
4000
F000
ENDCHAR

STARTCHAR q
ENCODING 113
SWIDTH 617 0
DWIDTH 9 0
BBX 8 10 1 -3
BITMAP
1B
66
42
82
84
8C
74
08
08
3C
ENDCHAR

STARTCHAR r
ENCODING 114
SWIDTH 617 0
DWIDTH 9 0
BBX 8 7 0 0
BITMAP
37
18
10
10
20
20
FC
ENDCHAR

STARTCHAR s
ENCODING 115
SWIDTH 617 0
DWIDTH 9 0
BBX 7 7 0 0
BITMAP
1E
22
20
18
04
84
F8
ENDCHAR

STARTCHAR t
ENCODING 116
SWIDTH 617 0
DWIDTH 9 0
BBX 6 10 2 0
BITMAP
20
20
20
FC
40
40
80
80
88
70
ENDCHAR

STARTCHAR u
ENCODING 117
SWIDTH 617 0
DWIDTH 9 0
BBX 6 7 1 0
BITMAP
CC
44
44
88
88
98
6C
ENDCHAR

STARTCHAR v
ENCODING 118
SWIDTH 617 0
DWIDTH 9 0
BBX 8 7 1 0
BITMAP
E7
42
44
44
28
28
30
ENDCHAR

STARTCHAR w
ENCODING 119
SWIDTH 617 0
DWIDTH 9 0
BBX 10 7 0 0
BITMAP
E1C0
4880
4900
5900
6600
6600
4400
ENDCHAR

STARTCHAR x
ENCODING 120
SWIDTH 617 0
DWIDTH 9 0
BBX 8 7 0 0
BITMAP
77
22
14
18
28
44
EE
ENDCHAR

STARTCHAR y
ENCODING 121
SWIDTH 617 0
DWIDTH 9 0
BBX 9 10 0 -3
BITMAP
7380
2100
2200
1400
1400
0800
1000
1000
2000
F000
ENDCHAR

STARTCHAR z
ENCODING 122
SWIDTH 617 0
DWIDTH 9 0
BBX 7 7 1 0
BITMAP
7E
44
08
10
20
44
FC
ENDCHAR

STARTCHAR braceleft
ENCODING 123
SWIDTH 617 0
DWIDTH 9 0
BBX 5 13 3 -3
BITMAP
18
20
20
20
40
80
40
40
40
80
80
80
60
ENDCHAR

STARTCHAR bar
ENCODING 124
SWIDTH 617 0
DWIDTH 9 0
BBX 3 11 3 -2
BITMAP
20
20
20
40
40
40
40
80
80
80
80
ENDCHAR

STARTCHAR braceright
ENCODING 125
SWIDTH 617 0
DWIDTH 9 0
BBX 5 13 1 -3
BITMAP
30
08
08
10
10
08
10
20
20
20
20
20
C0
ENDCHAR

STARTCHAR asciitilde
ENCODING 126
SWIDTH 617 0
DWIDTH 9 0
BBX 7 2 1 3
BITMAP
72
9C
ENDCHAR

STARTCHAR cent
ENCODING 162
SWIDTH 617 0
DWIDTH 9 0
BBX 6 10 2 0
BITMAP
08
08
3C
44
80
80
88
70
20
20
ENDCHAR

STARTCHAR sterling
ENCODING 163
SWIDTH 617 0
DWIDTH 9 0
BBX 7 9 1 0
BITMAP
1C
22
20
20
78
20
20
42
FC
ENDCHAR

STARTCHAR currency
ENCODING 164
SWIDTH 617 0
DWIDTH 9 0
BBX 7 6 1 1
BITMAP
66
3C
44
44
78
CC
ENDCHAR

STARTCHAR yen
ENCODING 165
SWIDTH 617 0
DWIDTH 9 0
BBX 8 9 1 0
BITMAP
77
22
24
28
7C
10
F8
20
70
ENDCHAR

STARTCHAR brokenbar
ENCODING 166
SWIDTH 617 0
DWIDTH 9 0
BBX 3 11 3 -2
BITMAP
20
20
40
40
00
00
40
40
80
80
80
ENDCHAR

STARTCHAR section
ENCODING 167
SWIDTH 617 0
DWIDTH 9 0
BBX 8 10 1 -1
BITMAP
1F
21
78
4C
66
32
1E
04
84
F8
ENDCHAR

STARTCHAR dieresis
ENCODING 168
SWIDTH 617 0
DWIDTH 9 0
BBX 4 1 3 8
BITMAP
90
ENDCHAR

STARTCHAR copyright
ENCODING 169
SWIDTH 617 0
DWIDTH 9 0
BBX 9 9 0 0
BITMAP
1E00
6100
4E80
9280
A080
A480
9900
4300
3C00
ENDCHAR

STARTCHAR multiply
ENCODING 170
SWIDTH 617 0
DWIDTH 9 0
BBX 8 7 1 1
BITMAP
41
22
14
18
28
44
82
ENDCHAR

STARTCHAR guillemotleft
ENCODING 171
SWIDTH 617 0
DWIDTH 9 0
BBX 9 6 0 1
BITMAP
0880
3300
6600
CC00
6600
1100
ENDCHAR

STARTCHAR logicalnot
ENCODING 172
SWIDTH 617 0
DWIDTH 9 0
BBX 6 3 1 3
BITMAP
FC
04
08
ENDCHAR

STARTCHAR hyphen
ENCODING 173
SWIDTH 617 0
DWIDTH 9 0
BBX 6 1 1 4
BITMAP
FC
ENDCHAR

STARTCHAR registered
ENCODING 174
SWIDTH 617 0
DWIDTH 9 0
BBX 9 9 0 0
BITMAP
1E00
2100
5C80
9280
9C80
A880
A500
4200
3C00
ENDCHAR

STARTCHAR macron
ENCODING 175
SWIDTH 617 0
DWIDTH 9 0
BBX 4 1 3 7
BITMAP
F0
ENDCHAR

STARTCHAR degree
ENCODING 176
SWIDTH 617 0
DWIDTH 9 0
BBX 5 5 2 5
BITMAP
70
88
88
88
70
ENDCHAR

STARTCHAR plusminus
ENCODING 177
SWIDTH 617 0
DWIDTH 9 0
BBX 7 7 1 1
BITMAP
08
08
7E
10
10
00
FC
ENDCHAR

STARTCHAR twosuperior
ENCODING 178
SWIDTH 617 0
DWIDTH 9 0
BBX 5 6 2 3
BITMAP
30
48
08
30
40
F0
ENDCHAR

STARTCHAR threesuperior
ENCODING 179
SWIDTH 617 0
DWIDTH 9 0
BBX 5 6 2 3
BITMAP
30
08
70
10
10
E0
ENDCHAR

STARTCHAR acute
ENCODING 180
SWIDTH 617 0
DWIDTH 9 0
BBX 4 2 3 7
BITMAP
30
C0
ENDCHAR

STARTCHAR mu
ENCODING 181
SWIDTH 617 0
DWIDTH 9 0
BBX 7 10 0 -3
BITMAP
66
22
22
44
44
4C
F6
80
80
80
ENDCHAR

STARTCHAR paragraph
ENCODING 182
SWIDTH 617 0
DWIDTH 9 0
BBX 8 10 1 -1
BITMAP
3F
6A
6A
74
34
14
28
28
28
EC
ENDCHAR

STARTCHAR periodcentered
ENCODING 183
SWIDTH 617 0
DWIDTH 9 0
BBX 2 2 4 3
BITMAP
C0
C0
ENDCHAR

STARTCHAR cedilla
ENCODING 184
SWIDTH 617 0
DWIDTH 9 0
BBX 4 4 1 -3
BITMAP
20
30
10
E0
ENDCHAR

STARTCHAR onesuperior
ENCODING 185
SWIDTH 617 0
DWIDTH 9 0
BBX 3 6 3 3
BITMAP
20
E0
20
40
40
E0
ENDCHAR

STARTCHAR divide
ENCODING 186
SWIDTH 617 0
DWIDTH 9 0
BBX 6 7 2 1
BITMAP
10
10
00
FC
00
20
20
ENDCHAR

STARTCHAR guillemotright
ENCODING 187
SWIDTH 617 0
DWIDTH 9 0
BBX 8 6 1 1
BITMAP
88
44
66
33
66
88
ENDCHAR

STARTCHAR onequarter
ENCODING 188
SWIDTH 617 0
DWIDTH 9 0
BBX 10 11 0 -1
BITMAP
2040
E080
2100
4200
4480
E980
1280
2480
4FC0
8100
0100
ENDCHAR

STARTCHAR onehalf
ENCODING 189
SWIDTH 617 0
DWIDTH 9 0
BBX 10 11 0 -1
BITMAP
2040
E080
2100
4200
4400
EB80
1480
2080
4300
8400
0F00
ENDCHAR

STARTCHAR threequarters
ENCODING 190
SWIDTH 617 0
DWIDTH 9 0
BBX 10 11 0 -1
BITMAP
7040
0880
7900
1200
1480
E980
1280
2480
4FC0
8100
0100
ENDCHAR

STARTCHAR dblunderscore
ENCODING 223
SWIDTH 617 0
DWIDTH 9 0
BBX 9 6 0 -2
BITMAP
0000
0000
FF80
0000
0000
FF80
ENDCHAR

STARTCHAR aleph
ENCODING 224
SWIDTH 617 0
DWIDTH 9 0
BBX 8 9 1 -1
BITMAP
27
11
11
2A
4C
84
84
E2
00
ENDCHAR

STARTCHAR beth
ENCODING 225
SWIDTH 617 0
DWIDTH 9 0
BBX 8 8 1 0
BITMAP
1F
01
01
02
02
04
04
FF
ENDCHAR

STARTCHAR gimmel
ENCODING 226
SWIDTH 617 0
DWIDTH 9 0
BBX 7 8 1 0
BITMAP
0E
02
02
04
04
0C
14
E4
ENDCHAR

STARTCHAR daleth
ENCODING 227
SWIDTH 617 0
DWIDTH 9 0
BBX 8 9 1 -1
BITMAP
7F
04
04
08
08
10
10
10
00
ENDCHAR

STARTCHAR he
ENCODING 228
SWIDTH 617 0
DWIDTH 9 0
BBX 8 9 1 -1
BITMAP
3F
01
01
22
22
42
44
44
00
ENDCHAR

STARTCHAR waw
ENCODING 229
SWIDTH 617 0
DWIDTH 9 0
BBX 6 9 2 -1
BITMAP
78
08
08
10
10
10
20
20
00
ENDCHAR

STARTCHAR zayin
ENCODING 230
SWIDTH 617 0
DWIDTH 9 0
BBX 7 10 2 -2
BITMAP
7C
10
10
20
20
20
40
40
00
00
ENDCHAR

STARTCHAR het
ENCODING 231
SWIDTH 617 0
DWIDTH 9 0
BBX 9 9 0 -1
BITMAP
3F80
1100
1100
2200
2200
4400
4400
4400
0000
ENDCHAR

STARTCHAR teth
ENCODING 232
SWIDTH 617 0
DWIDTH 9 0
BBX 9 9 0 -1
BITMAP
7380
1480
2880
2100
4100
4200
8200
7C00
0000
ENDCHAR

STARTCHAR yod
ENCODING 233
SWIDTH 617 0
DWIDTH 9 0
BBX 8 7 1 1
BITMAP
3E
02
02
04
04
00
00
ENDCHAR

STARTCHAR kaphfinal
ENCODING 234
SWIDTH 617 0
DWIDTH 9 0
BBX 9 10 0 -2
BITMAP
7F80
0200
0200
0400
0400
0800
0800
1000
1000
1C00
ENDCHAR

STARTCHAR kaph
ENCODING 235
SWIDTH 617 0
DWIDTH 9 0
BBX 8 8 1 0
BITMAP
3E
01
01
01
02
02
04
F8
ENDCHAR

STARTCHAR lamed
ENCODING 236
SWIDTH 617 0
DWIDTH 9 0
BBX 9 10 0 0
BITMAP
1000
2000
3F80
0080
0100
0200
0400
0800
1000
1E00
ENDCHAR

STARTCHAR memfinal
ENCODING 237
SWIDTH 617 0
DWIDTH 9 0
BBX 9 9 0 -1
BITMAP
3F80
1080
1080
2100
2100
4200
4200
7C00
0000
ENDCHAR

STARTCHAR mem
ENCODING 238
SWIDTH 617 0
DWIDTH 9 0
BBX 9 9 0 -1
BITMAP
6700
2880
3080
2080
4100
4100
8200
9E00
0000
ENDCHAR

STARTCHAR nunfinal
ENCODING 239
SWIDTH 617 0
DWIDTH 9 0
BBX 6 10 2 -2
BITMAP
1C
04
04
08
08
10
10
20
20
38
ENDCHAR

STARTCHAR nun
ENCODING 240
SWIDTH 617 0
DWIDTH 9 0
BBX 7 10 1 -2
BITMAP
0E
02
02
04
04
08
08
F0
00
00
ENDCHAR

STARTCHAR samekh
ENCODING 241
SWIDTH 617 0
DWIDTH 9 0
BBX 9 8 0 0
BITMAP
3F00
1080
1080
2080
2100
4100
4600
3800
ENDCHAR

STARTCHAR ayin
ENCODING 242
SWIDTH 617 0
DWIDTH 9 0
BBX 9 9 0 -1
BITMAP
3B80
0880
0880
1080
1100
2100
2600
F800
0000
ENDCHAR

STARTCHAR pefinal
ENCODING 243
SWIDTH 617 0
DWIDTH 9 0
BBX 8 10 1 -2
BITMAP
3F
21
41
42
82
E4
04
04
08
0E
ENDCHAR

STARTCHAR pe
ENCODING 244
SWIDTH 617 0
DWIDTH 9 0
BBX 8 9 1 -1
BITMAP
3F
21
41
42
72
04
04
FC
00
ENDCHAR

STARTCHAR zadikfinal
ENCODING 245
SWIDTH 617 0
DWIDTH 9 0
BBX 9 10 0 -2
BITMAP
7380
1080
1080
2100
3E00
4000
4000
8000
8000
E000
ENDCHAR

STARTCHAR zadik
ENCODING 246
SWIDTH 617 0
DWIDTH 9 0
BBX 9 9 0 -1
BITMAP
7380
1080
1100
1600
1800
0800
0400
FC00
0000
ENDCHAR

STARTCHAR kof
ENCODING 247
SWIDTH 617 0
DWIDTH 9 0
BBX 8 10 1 -2
BITMAP
7F
01
01
22
24
48
50
5C
80
80
ENDCHAR

STARTCHAR resh
ENCODING 248
SWIDTH 617 0
DWIDTH 9 0
BBX 9 8 0 0
BITMAP
3F00
0100
0100
0200
0200
0400
0400
0400
ENDCHAR

STARTCHAR shin
ENCODING 249
SWIDTH 617 0
DWIDTH 9 0
BBX 9 8 0 0
BITMAP
3580
2480
2480
4900
4900
9200
9200
7C00
ENDCHAR

STARTCHAR taf
ENCODING 250
SWIDTH 617 0
DWIDTH 9 0
BBX 9 8 0 0
BITMAP
3F80
0880
0880
1100
1100
2200
2200
E200
ENDCHAR
ENDFONT
